<svg
    viewBox="0 0 200 200"
    xmlns="http://www.w3.org/2000/svg"
>
    <!-- Removed defs, gradients, filters for Canvas compatibility -->
    
    <g>
        <path
            d="M 20 100 A 80 35 0 0 1 180 100"
            fill="none"
            stroke="#ffffff"
            stroke-width="4"
            opacity="0.3"
        />
    </g>
    <g transform="rotate(-15 100 100) translate(-15, 0)">
        <rect
            x="50"
            y="15"
            width="100"
            height="170"
            rx="12"
            fill="#000"
            opacity="0.3"
        />
        <!-- Solid Green Fill instead of Gradient -->
        <rect x="50" y="15" width="100" height="170" rx="12" fill="#22c55e" />
        <circle
            cx="120"
            cy="140"
            r="40"
            fill="#ffffff"
            opacity="0.05"
            pointer-events="none"
        />
        <circle
            cx="140"
            cy="160"
            r="30"
            fill="#ffffff"
            opacity="0.05"
            pointer-events="none"
        />
        <path
            d="M 50 15 L 150 115 L 150 15 Z"
            fill="#ffffff"
            opacity="0.1"
            pointer-events="none"
            style="mix-blend-mode: overlay;"
        />
        <rect
            x="51"
            y="16"
            width="98"
            height="168"
            rx="11"
            fill="none"
            stroke="#ffffff"
            stroke-width="1.5"
            opacity="0.2"
        />
        <g transform="translate(65, 35)">
            <!-- Solid Gold Fill instead of Gradient -->
            <rect x="0" y="0" width="18" height="24" rx="4" fill="#eab308" />
            <line
                x1="0"
                y1="8"
                x2="18"
                y2="8"
                stroke="#ca8a04"
                stroke-width="1"
                opacity="0.8"
            />
            <line
                x1="0"
                y1="16"
                x2="18"
                y2="16"
                stroke="#ca8a04"
                stroke-width="1"
                opacity="0.8"
            />
            <line
                x1="9"
                y1="0"
                x2="9"
                y2="24"
                stroke="#ca8a04"
                stroke-width="1"
                opacity="0.8"
            />
            <rect
                x="4"
                y="6"
                width="10"
                height="12"
                rx="2"
                fill="none"
                stroke="#ca8a04"
                stroke-width="1"
            />
        </g>
        <g
            transform="translate(125, 38)"
            fill="none"
            stroke="#ffffff"
            stroke-width="2"
            stroke-linecap="round"
            opacity="0.6"
        >
            <path d="M 0 0 A 8 8 0 0 1 0 16" />
            <path d="M 6 -4 A 14 14 0 0 1 6 20" />
            <path d="M 12 -8 A 20 20 0 0 1 12 24" />
        </g>
        <text
            x="140"
            y="170"
            font-family="'Montserrat', sans-serif"
            font-size="8"
            font-weight="900"
            font-style="italic"
            fill="#ffffff"
            opacity="0.5"
            text-anchor="end"
        >
            CASHBACK
        </text>
    </g>
    <g>
        <path
            d="M 180 100 A 80 35 0 0 1 20 100"
            fill="none"
            stroke="#ffffff"
            stroke-width="5"
            stroke-linecap="round"
        />
        <polygon points="20,85 12,102 28,102" fill="#ffffff" />
        <!-- Solid Gold Fill for Text -->
        <text
            x="100"
            y="118"
            font-family="'Montserrat', sans-serif"
            font-weight="900"
            font-size="52"
            fill="#eab308"
            text-anchor="middle"
        >
            $
        </text>
    </g>
    <path
        d="M 135 65 Q 135 75 145 75 Q 135 75 135 85 Q 135 75 125 75 Q 135 75 135 65 Z"
        fill="#fde047"
    />
    <path
        d="M 60 120 Q 60 126 66 126 Q 60 126 60 132 Q 60 126 54 126 Q 60 126 60 120 Z"
        fill="#ffffff"
    />
    <path
        d="M 100 30 Q 100 36 106 36 Q 100 36 100 42 Q 100 36 94 36 Q 100 36 100 30 Z"
        fill="#ffffff"
    />
</svg>
